<svg xmlns="http://www.w3.org/2000/svg" version="1.1" xmlns:xlink="http://www.w3.org/1999/xlink" xmlns:svgjs="http://svgjs.dev/svgjs" width="1440" height="560" preserveAspectRatio="none" viewBox="0 0 1440 560"><g mask="url(&quot;#SvgjsMask1002&quot;)" fill="none"><rect width="1440" height="560" x="0" y="0" fill="#0e2a47"></rect><path d="M0,700.994C131.756,687.196,170.558,507.868,270.514,420.927C351.198,350.748,479.917,336.621,528.46,241.34C577.361,145.357,522.201,32.478,523.295,-75.238C524.639,-207.604,628.899,-370.193,535.622,-464.119C439.928,-560.478,269.139,-435.773,136.465,-464.758C18.464,-490.537,-62.383,-635.143,-182.333,-620.97C-302.19,-606.808,-388.494,-495.099,-455.624,-394.8C-517.86,-301.812,-545.133,-190.318,-545.455,-78.425C-545.749,23.811,-497.043,114.649,-457.359,208.869C-416.384,306.154,-381.414,404.347,-309.552,481.672C-221.685,576.218,-128.37,714.437,0,700.994" fill="#0b2239"></path><path d="M1440 1060.41C1533.384 1069.755 1622.028 1016.2850000000001 1696.7060000000001 959.443 1767.628 905.46 1818.679 830.754 1850.9 747.652 1881.84 667.852 1877.347 582.905 1875.878 497.33 1874.199 399.548 1906.375 285.282 1841.703 211.92200000000003 1776.996 138.52300000000002 1659.016 159.39299999999997 1562.709 142.08999999999997 1477.558 126.791 1395.3029999999999 103.61200000000002 1309.731 116.344 1214.62 130.495 1112.601 149.20499999999998 1046.368 218.916 979.25 289.559 945.3399999999999 393.19100000000003 954.53 490.2 963.0989999999999 580.659 1045.944 640.842 1093.663 718.167 1134.3310000000001 784.067 1159.2359999999999 856.738 1214.318 911.169 1279.795 975.8720000000001 1348.405 1051.2440000000001 1440 1060.41" fill="#113255"></path></g><defs><mask id="SvgjsMask1002"><rect width="1440" height="560" fill="#ffffff"></rect></mask></defs></svg>